<?xml version="1.0" encoding="utf-8"?>
<?xml-stylesheet type="text/xsl" href="rss1.xsl"?>
<rss version="2.0" xmlns:atom="http://www.w3.org/2005/Atom" xmlns:content="http://purl.org/rss/1.0/modules/content/" xmlns:dc="http://purl.org/dc/elements/1.1/" xmlns:media="http://search.yahoo.com/mrss/">
<channel>
 <title>Getty</title>
 <link>http://www.gettyimg.com/</link>
 <atom:link href="http://www.gettyimg.com/" rel="self" type="application/rss+xml" />

 
                <item>
                <title><![CDATA[【Cinema Center】MOVIE - Alice.in.Wonderland.1951.1080p.DSNP.WEB-DL.DDP5.1.H.264-Samuel]]></title>
                <link><![CDATA[https://sharemania.us/threads/alice-in-wonderland-1951-1080p-dsnp-web-dl-ddp5-1-h-264-samuel.239590/]]></link>
                <description><![CDATA[<article>
<blockquote class="messageText SelectQuoteContainer ugc baseHtml">
<div style="text-align: center"><b><span style="font-size: 26px">Alice in Wonderland</span></b><br>
<img src="https://i.imgur.com/H2miT3h.png" class="bbCodeImage LbImage" alt="[​IMG]" data-url="https://i.imgur.com/H2miT3h.png" style=""><br>
<b><a href="https://i.imgur.com/iILMbq6.jpeg" target="_blank" class="externalLink" rel="nofollow">Alternate Artwork 1</a></b> | <b><a href="https://i.imgur.com/wSH45aR.jpeg" target="_blank" class="externalLink" rel="nofollow">Alternate Artwork 2</a></b> | <b><a href="https://i.imgur.com/i9342ty.jpeg" target="_blank" class="externalLink" rel="nofollow">Alternate Artwork 3</a></b> | <b><a href="https://i.imgur.com/HwxzLdm.png" target="_blank" class="externalLink" rel="nofollow">Alternate Artwork 4</a></b> | <b><a href="https://i.imgur.com/zVOArVp.png" target="_blank" class="externalLink" rel="nofollow">Alternate Artwork 5</a></b> | <b><a href="https://i.imgur.com/MNLn7WR.jpeg" target="_blank" class="externalLink" rel="nofollow">Alternate Artwork 6</a></b> | <b><a href="https://i.imgur.com/2A4En2r.png" target="_blank" class="externalLink" rel="nofollow">Alternate Artwork 7</a></b> | <b><a href="https://i.imgur.com/j4W5RDO.png" target="_blank" class="externalLink" rel="nofollow">Alternate Artwork 8</a></b> | <b><a href="https://i.imgur.com/YPwJbxr.jpeg" target="_blank" class="externalLink" rel="nofollow">Alternate Artwork 9</a></b> | <b><a href="https://i.imgur.com/WxEtuM2.jpeg" target="_blank" class="externalLink" rel="nofollow">Alternate Artwork 10</a></b> | <b><a href="https://i.imgur.com/5tpSPb5.jpeg" target="_blank" class="externalLink" rel="nofollow">Alternate Artwork 11</a></b> | <b><a href="https://i.imgur.com/pX7gemd.png" target="_blank" class="externalLink" rel="nofollow">Header 1</a></b> | <b><a href="https://i.imgur.com/blJR6ep.png" target="_blank" class="externalLink" rel="nofollow">Header 2</a></b> | <b><a href="https://i.imgur.com/ViXJHFA.jpeg" target="_blank" class="externalLink" rel="nofollow">Header 3</a></b> | <b><a href="https://i.imgur.com/2x9MCoM.jpeg" target="_blank" class="externalLink" rel="nofollow">Header 4</a></b> | <b><a href="https://i.imgur.com/gKa3UIR.png" target="_blank" class="externalLink" rel="nofollow">Poster 1</a></b> | <b><a href="https://i.imgur.com/DhPzcmc.png" target="_blank" class="externalLink" rel="nofollow">Poster 2</a></b> | <b><a href="https://i.imgur.com/ZE1s4Sd.jpeg" target="_blank" class="externalLink" rel="nofollow">Poster 3</a></b> | <b><a href="https://i.imgur.com/tVAKHs1.png" target="_blank" class="externalLink" rel="nofollow">Poster 4</a></b> | <b><a href="https://i.imgur.com/DgvB3Iu.jpeg" target="_blank" class="externalLink" rel="nofollow">Poster 5</a></b> | <b><a href="https://i.imgur.com/6TklysK.jpeg" target="_blank" class="externalLink" rel="nofollow">Thumbnail 1</a></b> | <b><a href="https://i.imgur.com/C3TwyHb.jpeg" target="_blank" class="externalLink" rel="nofollow">Thumbnail 2</a></b> | <b><a href="https://i.imgur.com/yI8Asbp.jpeg" target="_blank" class="externalLink" rel="nofollow">Key Art</a></b><br>
<br>
<img src="https://i.imgur.com/WEsl0Js.png" class="bbCodeImage LbImage" alt="[​IMG]" data-url="https://i.imgur.com/WEsl0Js.png" style=""> <img src="https://i.imgur.com/R7cyABL.png" class="bbCodeImage LbImage" alt="[​IMG]" data-url="https://i.imgur.com/R7cyABL.png" style=""> <img src="https://i.imgur.com/aNwcs8B.png" class="bbCodeImage LbImage" alt="[​IMG]" data-url="https://i.imgur.com/aNwcs8B.png" style=""><br>
1951 • 1h 21m<br>
Family, Fantasy, Animation, Action-Adventure<br>
<br>
<div class="bbCodeBlock bbCodeQuote">
<aside>
<blockquote class="quoteContainer"><div class="quote"><b><span style="font-size: 15px"><span style="font-family: 'Arial'">Description</span></span></b><br>
Join Alice as she falls into the madcap world of Wonderland and meets extraordinary characters including Tweedledee and Tweedledum, the Mad Hatter, the Queen of Hearts, and the frantically late White Rabbit.</div><div class="quoteExpand">Click to expand...</div></blockquote>
</aside>
</div>
<div class="bbCodeBlock bbCodeQuote">
<aside>
<blockquote class="quoteContainer"><div class="quote"><b><span style="font-size: 15px"><span style="font-family: 'Arial'">Trailers</span></span></b><br>
<span data-s9e-mediaembed="googledrive" style="display:inline-block;width:100%;max-width:640px"><span style="display:block;overflow:hidden;position:relative;padding-bottom:75%"><iframe allowfullscreen="" loading="lazy" scrolling="no" src="//drive.google.com/file/d/1eK1bazhpM2eHtvKhhIIfl-QI8MfSu1at/preview" style="border:0;height:100%;left:0;position:absolute;width:100%"></iframe></span></span><br>
<b>Alice in Wonderland Trailer</b></div><div class="quoteExpand quoteCut">Click to expand...</div></blockquote>
</aside>
</div>
<div class="bbCodeBlock bbCodeQuote">
<aside>
<blockquote class="quoteContainer"><div class="quote"><b><span style="font-size: 15px"><span style="font-family: 'Arial'">More Information</span></span></b><br>
<b>Long Description:</b><br>
Join Alice as she chases the White Rabbit into a topsy-turvy world that gets "curiouser and curiouser" as her fantastical adventures unfold. Meet the Mad Hatter, March Hare, Tweedledee &amp; Tweedledum, the Cheshire Cat, the Queen of Hearts and more unforgettable characters, all set against a backdrop of awe-inspiring splendor. Contains tobacco depictions.<br>
<b>Duration:</b> 1h 21m<br>
<b>Release Date:</b> 1951<br>
<b>Genre:</b> Family, Fantasy, Animation, Action-Adventure<br>
<b>Rating:</b> <img src="https://i.imgur.com/WEsl0Js.png" class="bbCodeImage LbImage" alt="[​IMG]" data-url="https://i.imgur.com/WEsl0Js.png" style=""><br>
<b>Director:</b> Clyde Geronimi, Hamilton Luske, Wilfred Jackson<br>
<b>Starring:</b> Ed Wynn, Richard Haydn, Sterling Holloway, Jerry Colonna, Verna Felton, Pat O'Malley</div><div class="quoteExpand quoteCut">Click to expand...</div></blockquote>
</aside>
</div>
<div class="bbCodeBlock bbCodeQuote">
<aside>
<blockquote class="quoteContainer"><div class="quote"><b><span style="font-size: 15px">Source</span></b><br>
<img src="https://i.imgur.com/zIQLtMk.png" class="bbCodeImage LbImage" alt="[​IMG]" data-url="https://i.imgur.com/zIQLtMk.png" style=""></div><div class="quoteExpand">Click to expand...</div></blockquote>
</aside>
</div>
<div class="bbCodeBlock bbCodeQuote">
<aside>
<blockquote class="quoteContainer"><div class="quote"><b><span style="font-size: 15px">Release Name</span></b><br>
Alice.in.Wonderland.1951.1080p.DSNP.WEB-DL.DDP5.1.H.264-Samuel</div><div class="quoteExpand">Click to expand...</div></blockquote>
</aside>
</div>
<div class="ToggleTriggerAnchor bbCodeSpoilerContainer">
<button type="button" class="button bbCodeSpoilerButton ToggleTrigger Tooltip JsOnly" data-target="> .SpoilerTarget"><span>Spoiler: <span class="SpoilerTitle">Media Information</span></span></button>
<div class="SpoilerTarget bbCodeSpoilerText">General<br>
Complete name : Alice.in.Wonderland.1951.1080p.DSNP.WEB-DL.DDP5.1.H.264-Samuel.mkv<br>
Format : Matroska<br>
Format version : Version 4<br>
File size : 6.45 GiB<br>
Duration : 1 h 15 min<br>
Overall bit rate mode : Variable<br>
Overall bit rate : 12.3 Mb/s<br>
Frame rate : 23.976 FPS<br>
Encoded date : 2024-03-02 07:22:51 UTC<br>
Writing application : mkvmerge v82.0 ('I'm The President') 64-bit<br>
Writing library : libebml v1.4.5 + libmatroska v1.7.1<br>
<br>
Video<br>
ID : 1<br>
Format : AVC<br>
Format/Info : Advanced Video Codec<br>
Format profile : High@L4<br>
Format settings : CABAC / 4 Ref Frames<br>
Format settings, CABAC : Yes<br>
Format settings, Reference frames : 4 frames<br>
Codec ID : V_MPEG4/ISO/AVC<br>
Duration : 1 h 15 min<br>
Bit rate mode : Variable<br>
Bit rate : 6 765 kb/s<br>
Maximum bit rate : 12.7 Mb/s<br>
Width : 1 920 pixels<br>
Height : 1 080 pixels<br>
Display aspect ratio : 16:9<br>
Frame rate mode : Constant<br>
Frame rate : 23.976 (24000/1001) FPS<br>
Color space : YUV<br>
Chroma subsampling : 4:2:0<br>
Bit depth : 8 bits<br>
Scan type : Progressive<br>
Bits/(Pixel*Frame) : 0.136<br>
Time code of first frame : 00:00:00;00<br>
Stream size : 3.56 GiB (55%)<br>
Default : Yes<br>
Forced : No<br>
Color range : Limited<br>
Color primaries : BT.709<br>
Transfer characteristics : BT.709<br>
Matrix coefficients : BT.709<br>
<br>
Audio #1<br>
ID : 2<br>
Format : E-AC-3<br>
Format/Info : Enhanced AC-3<br>
Commercial name : Dolby Digital Plus<br>
Codec ID : A_EAC3<br>
Duration : 1 h 15 min<br>
Bit rate mode : Constant<br>
Bit rate : 256 kb/s<br>
Channel(s) : 6 channels<br>
Channel layout : L R C LFE Ls Rs<br>
Sampling rate : 48.0 kHz<br>
Frame rate : 31.250 FPS (1536 SPF)<br>
Compression mode : Lossy<br>
Stream size : 138 MiB (2%)<br>
Language : English<br>
Service kind : Complete Main<br>
Default : Yes<br>
Forced : No<br>
<br>
Audio #2<br>
ID : 3<br>
Format : AAC LC<br>
Format/Info : Advanced Audio Codec Low Complexity<br>
Codec ID : A_AAC-2<br>
Duration : 1 h 15 min<br>
Bit rate : 125 kb/s<br>
Channel(s) : 2 channels<br>
Channel layout : L R<br>
Sampling rate : 48.0 kHz<br>
Frame rate : 46.875 FPS (1024 SPF)<br>
Compression mode : Lossy<br>
Stream size : 67.5 MiB (1%)<br>
Title : Audio Description<br>
Language : English<br>
Default : No<br>
Forced : No<br>
<br>
Audio #3<br>
ID : 4<br>
Format : E-AC-3<br>
Format/Info : Enhanced AC-3<br>
Commercial name : Dolby Digital Plus<br>
Codec ID : A_EAC3<br>
Duration : 1 h 15 min<br>
Bit rate mode : Constant<br>
Bit rate : 256 kb/s<br>
Channel(s) : 6 channels<br>
Channel layout : L R C LFE Ls Rs<br>
Sampling rate : 48.0 kHz<br>
Frame rate : 31.250 FPS (1536 SPF)<br>
Compression mode : Lossy<br>
Stream size : 138 MiB (2%)<br>
Title : Mandarin<br>
Language : Chinese<br>
Service kind : Complete Main<br>
Default : No<br>
Forced : No<br>
<br>
Audio #4<br>
ID : 5<br>
Format : AAC LC<br>
Format/Info : Advanced Audio Codec Low Complexity<br>
Codec ID : A_AAC-2<br>
Duration : 1 h 15 min<br>
Bit rate : 125 kb/s<br>
Channel(s) : 2 channels<br>
Channel layout : L R<br>
Sampling rate : 48.0 kHz<br>
Frame rate : 46.875 FPS (1024 SPF)<br>
Compression mode : Lossy<br>
Stream size : 67.5 MiB (1%)<br>
Language : Czech<br>
Default : No<br>
Forced : No<br>
<br>
Audio #5<br>
ID : 6<br>
Format : E-AC-3<br>
Format/Info : Enhanced AC-3<br>
Commercial name : Dolby Digital Plus<br>
Codec ID : A_EAC3<br>
Duration : 1 h 15 min<br>
Bit rate mode : Constant<br>
Bit rate : 256 kb/s<br>
Channel(s) : 6 channels<br>
Channel layout : L R C LFE Ls Rs<br>
Sampling rate : 48.0 kHz<br>
Frame rate : 31.250 FPS (1536 SPF)<br>
Compression mode : Lossy<br>
Stream size : 138 MiB (2%)<br>
Language : Danish<br>
Service kind : Complete Main<br>
Default : No<br>
Forced : No<br>
<br>
Audio #6<br>
ID : 7<br>
Format : E-AC-3<br>
Format/Info : Enhanced AC-3<br>
Commercial name : Dolby Digital Plus<br>
Codec ID : A_EAC3<br>
Duration : 1 h 15 min<br>
Bit rate mode : Constant<br>
Bit rate : 256 kb/s<br>
Channel(s) : 6 channels<br>
Channel layout : L R C LFE Ls Rs<br>
Sampling rate : 48.0 kHz<br>
Frame rate : 31.250 FPS (1536 SPF)<br>
Compression mode : Lossy<br>
Stream size : 138 MiB (2%)<br>
Language : German<br>
Service kind : Complete Main<br>
Default : No<br>
Forced : No<br>
<br>
Audio #7<br>
ID : 8<br>
Format : E-AC-3<br>
Format/Info : Enhanced AC-3<br>
Commercial name : Dolby Digital Plus<br>
Codec ID : A_EAC3<br>
Duration : 1 h 15 min<br>
Bit rate mode : Constant<br>
Bit rate : 256 kb/s<br>
Channel(s) : 6 channels<br>
Channel layout : L R C LFE Ls Rs<br>
Sampling rate : 48.0 kHz<br>
Frame rate : 31.250 FPS (1536 SPF)<br>
Compression mode : Lossy<br>
Stream size : 138 MiB (2%)<br>
Language : Greek<br>
Service kind : Complete Main<br>
Default : No<br>
Forced : No<br>
<br>
Audio #8<br>
ID : 9<br>
Format : E-AC-3<br>
Format/Info : Enhanced AC-3<br>
Commercial name : Dolby Digital Plus<br>
Codec ID : A_EAC3<br>
Duration : 1 h 15 min<br>
Bit rate mode : Constant<br>
Bit rate : 256 kb/s<br>
Channel(s) : 6 channels<br>
Channel layout : L R C LFE Ls Rs<br>
Sampling rate : 48.0 kHz<br>
Frame rate : 31.250 FPS (1536 SPF)<br>
Compression mode : Lossy<br>
Stream size : 138 MiB (2%)<br>
Title : Latin American<br>
Language : Spanish<br>
Service kind : Complete Main<br>
Default : No<br>
Forced : No<br>
<br>
Audio #9<br>
ID : 10<br>
Format : E-AC-3<br>
Format/Info : Enhanced AC-3<br>
Commercial name : Dolby Digital Plus<br>
Codec ID : A_EAC3<br>
Duration : 1 h 15 min<br>
Bit rate mode : Constant<br>
Bit rate : 256 kb/s<br>
Channel(s) : 6 channels<br>
Channel layout : L R C LFE Ls Rs<br>
Sampling rate : 48.0 kHz<br>
Frame rate : 31.250 FPS (1536 SPF)<br>
Compression mode : Lossy<br>
Stream size : 138 MiB (2%)<br>
Title : European<br>
Language : Spanish<br>
Service kind : Complete Main<br>
Default : No<br>
Forced : No<br>
<br>
Audio #10<br>
ID : 11<br>
Format : E-AC-3<br>
Format/Info : Enhanced AC-3<br>
Commercial name : Dolby Digital Plus<br>
Codec ID : A_EAC3<br>
Duration : 1 h 15 min<br>
Bit rate mode : Constant<br>
Bit rate : 256 kb/s<br>
Channel(s) : 6 channels<br>
Channel layout : L R C LFE Ls Rs<br>
Sampling rate : 48.0 kHz<br>
Frame rate : 31.250 FPS (1536 SPF)<br>
Compression mode : Lossy<br>
Stream size : 138 MiB (2%)<br>
Language : Finnish<br>
Service kind : Complete Main<br>
Default : No<br>
Forced : No<br>
<br>
Audio #11<br>
ID : 12<br>
Format : AAC LC<br>
Format/Info : Advanced Audio Codec Low Complexity<br>
Codec ID : A_AAC-2<br>
Duration : 1 h 15 min<br>
Bit rate : 125 kb/s<br>
Channel(s) : 2 channels<br>
Channel layout : L R<br>
Sampling rate : 48.0 kHz<br>
Frame rate : 46.875 FPS (1024 SPF)<br>
Compression mode : Lossy<br>
Stream size : 67.5 MiB (1%)<br>
Language : Hungarian<br>
Default : No<br>
Forced : No<br>
<br>
Audio #12<br>
ID : 13<br>
Format : E-AC-3<br>
Format/Info : Enhanced AC-3<br>
Commercial name : Dolby Digital Plus<br>
Codec ID : A_EAC3<br>
Duration : 1 h 15 min<br>
Bit rate mode : Constant<br>
Bit rate : 256 kb/s<br>
Channel(s) : 6 channels<br>
Channel layout : L R C LFE Ls Rs<br>
Sampling rate : 48.0 kHz<br>
Frame rate : 31.250 FPS (1536 SPF)<br>
Compression mode : Lossy<br>
Stream size : 138 MiB (2%)<br>
Language : Icelandic<br>
Service kind : Complete Main<br>
Default : No<br>
Forced : No<br>
<br>
Audio #13<br>
ID : 14<br>
Format : E-AC-3<br>
Format/Info : Enhanced AC-3<br>
Commercial name : Dolby Digital Plus<br>
Codec ID : A_EAC3<br>
Duration : 1 h 15 min<br>
Bit rate mode : Constant<br>
Bit rate : 256 kb/s<br>
Channel(s) : 6 channels<br>
Channel layout : L R C LFE Ls Rs<br>
Sampling rate : 48.0 kHz<br>
Frame rate : 31.250 FPS (1536 SPF)<br>
Compression mode : Lossy<br>
Stream size : 138 MiB (2%)<br>
Language : Italian<br>
Service kind : Complete Main<br>
Default : No<br>
Forced : No<br>
<br>
Audio #14<br>
ID : 15<br>
Format : E-AC-3<br>
Format/Info : Enhanced AC-3<br>
Commercial name : Dolby Digital Plus<br>
Codec ID : A_EAC3<br>
Duration : 1 h 15 min<br>
Bit rate mode : Constant<br>
Bit rate : 256 kb/s<br>
Channel(s) : 6 channels<br>
Channel layout : L R C LFE Ls Rs<br>
Sampling rate : 48.0 kHz<br>
Frame rate : 31.250 FPS (1536 SPF)<br>
Compression mode : Lossy<br>
Stream size : 138 MiB (2%)<br>
Language : Japanese<br>
Service kind : Complete Main<br>
Default : No<br>
Forced : No<br>
<br>
Audio #15<br>
ID : 16<br>
Format : AAC LC<br>
Format/Info : Advanced Audio Codec Low Complexity<br>
Codec ID : A_AAC-2<br>
Duration : 1 h 15 min<br>
Bit rate : 125 kb/s<br>
Channel(s) : 2 channels<br>
Channel layout : L R<br>
Sampling rate : 48.0 kHz<br>
Frame rate : 46.875 FPS (1024 SPF)<br>
Compression mode : Lossy<br>
Stream size : 67.5 MiB (1%)<br>
Language : Korean<br>
Default : No<br>
Forced : No<br>
<br>
Audio #16<br>
ID : 17<br>
Format : E-AC-3<br>
Format/Info : Enhanced AC-3<br>
Commercial name : Dolby Digital Plus<br>
Codec ID : A_EAC3<br>
Duration : 1 h 15 min<br>
Bit rate mode : Constant<br>
Bit rate : 256 kb/s<br>
Channel(s) : 6 channels<br>
Channel layout : L R C LFE Ls Rs<br>
Sampling rate : 48.0 kHz<br>
Frame rate : 31.250 FPS (1536 SPF)<br>
Compression mode : Lossy<br>
Stream size : 138 MiB (2%)<br>
Language : Dutch<br>
Service kind : Complete Main<br>
Default : No<br>
Forced : No<br>
<br>
Audio #17<br>
ID : 18<br>
Format : E-AC-3<br>
Format/Info : Enhanced AC-3<br>
Commercial name : Dolby Digital Plus<br>
Codec ID : A_EAC3<br>
Duration : 1 h 15 min<br>
Bit rate mode : Constant<br>
Bit rate : 256 kb/s<br>
Channel(s) : 6 channels<br>
Channel layout : L R C LFE Ls Rs<br>
Sampling rate : 48.0 kHz<br>
Frame rate : 31.250 FPS (1536 SPF)<br>
Compression mode : Lossy<br>
Stream size : 138 MiB (2%)<br>
Language : Norwegian<br>
Service kind : Complete Main<br>
Default : No<br>
Forced : No<br>
<br>
Audio #18<br>
ID : 19<br>
Format : AAC LC<br>
Format/Info : Advanced Audio Codec Low Complexity<br>
Codec ID : A_AAC-2<br>
Duration : 1 h 15 min<br>
Bit rate : 125 kb/s<br>
Channel(s) : 2 channels<br>
Channel layout : L R<br>
Sampling rate : 48.0 kHz<br>
Frame rate : 46.875 FPS (1024 SPF)<br>
Compression mode : Lossy<br>
Stream size : 67.5 MiB (1%)<br>
Language : Polish<br>
Default : No<br>
Forced : No<br>
<br>
Audio #19<br>
ID : 20<br>
Format : E-AC-3<br>
Format/Info : Enhanced AC-3<br>
Commercial name : Dolby Digital Plus<br>
Codec ID : A_EAC3<br>
Duration : 1 h 15 min<br>
Bit rate mode : Constant<br>
Bit rate : 256 kb/s<br>
Channel(s) : 6 channels<br>
Channel layout : L R C LFE Ls Rs<br>
Sampling rate : 48.0 kHz<br>
Frame rate : 31.250 FPS (1536 SPF)<br>
Compression mode : Lossy<br>
Stream size : 138 MiB (2%)<br>
Title : Brazilian<br>
Language : Portuguese<br>
Service kind : Complete Main<br>
Default : No<br>
Forced : No<br>
<br>
Audio #20<br>
ID : 21<br>
Format : E-AC-3<br>
Format/Info : Enhanced AC-3<br>
Commercial name : Dolby Digital Plus<br>
Codec ID : A_EAC3<br>
Duration : 1 h 15 min<br>
Bit rate mode : Constant<br>
Bit rate : 256 kb/s<br>
Channel(s) : 6 channels<br>
Channel layout : L R C LFE Ls Rs<br>
Sampling rate : 48.0 kHz<br>
Frame rate : 31.250 FPS (1536 SPF)<br>
Compression mode : Lossy<br>
Stream size : 138 MiB (2%)<br>
Title : European<br>
Language : Portuguese<br>
Service kind : Complete Main<br>
Default : No<br>
Forced : No<br>
<br>
Audio #21<br>
ID : 22<br>
Format : E-AC-3<br>
Format/Info : Enhanced AC-3<br>
Commercial name : Dolby Digital Plus<br>
Codec ID : A_EAC3<br>
Duration : 1 h 15 min<br>
Bit rate mode : Constant<br>
Bit rate : 256 kb/s<br>
Channel(s) : 6 channels<br>
Channel layout : L R C LFE Ls Rs<br>
Sampling rate : 48.0 kHz<br>
Frame rate : 31.250 FPS (1536 SPF)<br>
Compression mode : Lossy<br>
Stream size : 138 MiB (2%)<br>
Language : Romanian<br>
Service kind : Complete Main<br>
Default : No<br>
Forced : No<br>
<br>
Audio #22<br>
ID : 23<br>
Format : E-AC-3<br>
Format/Info : Enhanced AC-3<br>
Commercial name : Dolby Digital Plus<br>
Codec ID : A_EAC3<br>
Duration : 1 h 15 min<br>
Bit rate mode : Constant<br>
Bit rate : 256 kb/s<br>
Channel(s) : 6 channels<br>
Channel layout : L R C LFE Ls Rs<br>
Sampling rate : 48.0 kHz<br>
Frame rate : 31.250 FPS (1536 SPF)<br>
Compression mode : Lossy<br>
Stream size : 138 MiB (2%)<br>
Language : Swedish<br>
Service kind : Complete Main<br>
Default : No<br>
Forced : No<br>
<br>
Audio #23<br>
ID : 24<br>
Format : E-AC-3<br>
Format/Info : Enhanced AC-3<br>
Commercial name : Dolby Digital Plus<br>
Codec ID : A_EAC3<br>
Duration : 1 h 15 min<br>
Bit rate mode : Constant<br>
Bit rate : 256 kb/s<br>
Channel(s) : 6 channels<br>
Channel layout : L R C LFE Ls Rs<br>
Sampling rate : 48.0 kHz<br>
Frame rate : 31.250 FPS (1536 SPF)<br>
Compression mode : Lossy<br>
Stream size : 138 MiB (2%)<br>
Language : Turkish<br>
Service kind : Complete Main<br>
Default : No<br>
Forced : No<br>
<br>
Audio #24<br>
ID : 25<br>
Format : E-AC-3<br>
Format/Info : Enhanced AC-3<br>
Commercial name : Dolby Digital Plus<br>
Codec ID : A_EAC3<br>
Duration : 1 h 15 min<br>
Bit rate mode : Constant<br>
Bit rate : 256 kb/s<br>
Channel(s) : 6 channels<br>
Channel layout : L R C LFE Ls Rs<br>
Sampling rate : 48.0 kHz<br>
Frame rate : 31.250 FPS (1536 SPF)<br>
Compression mode : Lossy<br>
Stream size : 138 MiB (2%)<br>
Title : Cantonese<br>
Language : Chinese<br>
Service kind : Complete Main<br>
Default : No<br>
Forced : No<br>
<br>
Text #1<br>
ID : 26<br>
Format : UTF-8<br>
Codec ID : S_TEXT/UTF8<br>
Codec ID/Info : UTF-8 Plain Text<br>
Duration : 1 h 14 min<br>
Bit rate : 65 b/s<br>
Frame rate : 0.240 FPS<br>
Count of elements : 1080<br>
Stream size : 35.7 KiB (0%)<br>
Title : SDH<br>
Language : English<br>
Default : No<br>
Forced : No<br>
<br>
Text #2<br>
ID : 27<br>
Format : UTF-8<br>
Codec ID : S_TEXT/UTF8<br>
Codec ID/Info : UTF-8 Plain Text<br>
Duration : 1 h 14 min<br>
Bit rate : 52 b/s<br>
Frame rate : 0.202 FPS<br>
Count of elements : 903<br>
Stream size : 28.8 KiB (0%)<br>
Language : Czech<br>
Default : No<br>
Forced : No<br>
<br>
Text #3<br>
ID : 28<br>
Format : UTF-8<br>
Codec ID : S_TEXT/UTF8<br>
Codec ID/Info : UTF-8 Plain Text<br>
Duration : 47 min 3 s<br>
Bit rate : 0 b/s<br>
Frame rate : 0.001 FPS<br>
Count of elements : 3<br>
Stream size : 79.0 Bytes (0%)<br>
Title : Forced<br>
Language : Danish<br>
Default : No<br>
Forced : Yes<br>
<br>
Text #4<br>
ID : 29<br>
Format : UTF-8<br>
Codec ID : S_TEXT/UTF8<br>
Codec ID/Info : UTF-8 Plain Text<br>
Duration : 1 h 14 min<br>
Bit rate : 56 b/s<br>
Frame rate : 0.212 FPS<br>
Count of elements : 950<br>
Stream size : 30.9 KiB (0%)<br>
Language : Danish<br>
Default : No<br>
Forced : No<br>
<br>
Text #5<br>
ID : 30<br>
Format : UTF-8<br>
Codec ID : S_TEXT/UTF8<br>
Codec ID/Info : UTF-8 Plain Text<br>
Duration : 47 min 3 s<br>
Bit rate : 0 b/s<br>
Frame rate : 0.001 FPS<br>
Count of elements : 3<br>
Stream size : 75.0 Bytes (0%)<br>
Title : Forced<br>
Language : German<br>
Default : No<br>
Forced : Yes<br>
<br>
Text #6<br>
ID : 31<br>
Format : UTF-8<br>
Codec ID : S_TEXT/UTF8<br>
Codec ID/Info : UTF-8 Plain Text<br>
Duration : 1 h 14 min<br>
Bit rate : 61 b/s<br>
Frame rate : 0.212 FPS<br>
Count of elements : 950<br>
Stream size : 33.5 KiB (0%)<br>
Language : German<br>
Default : No<br>
Forced : No<br>
<br>
Text #7<br>
ID : 32<br>
Format : UTF-8<br>
Codec ID : S_TEXT/UTF8<br>
Codec ID/Info : UTF-8 Plain Text<br>
Duration : 1 h 14 min<br>
Bit rate : 82 b/s<br>
Frame rate : 0.193 FPS<br>
Count of elements : 860<br>
Stream size : 44.7 KiB (0%)<br>
Language : Greek<br>
Default : No<br>
Forced : No<br>
<br>
Text #8<br>
ID : 33<br>
Format : UTF-8<br>
Codec ID : S_TEXT/UTF8<br>
Codec ID/Info : UTF-8 Plain Text<br>
Duration : 1 h 14 min<br>
Bit rate : 0 b/s<br>
Frame rate : 0.002 FPS<br>
Count of elements : 8<br>
Stream size : 169 Bytes (0%)<br>
Title : Latin American (Forced)<br>
Language : Spanish<br>
Default : No<br>
Forced : Yes<br>
<br>
Text #9<br>
ID : 34<br>
Format : UTF-8<br>
Codec ID : S_TEXT/UTF8<br>
Codec ID/Info : UTF-8 Plain Text<br>
Duration : 1 h 14 min<br>
Bit rate : 61 b/s<br>
Frame rate : 0.214 FPS<br>
Count of elements : 963<br>
Stream size : 33.6 KiB (0%)<br>
Title : Latin American<br>
Language : Spanish<br>
Default : No<br>
Forced : No<br>
<br>
Text #10<br>
ID : 35<br>
Format : UTF-8<br>
Codec ID : S_TEXT/UTF8<br>
Codec ID/Info : UTF-8 Plain Text<br>
Duration : 1 h 8 min<br>
Bit rate : 0 b/s<br>
Frame rate : 0.001 FPS<br>
Count of elements : 3<br>
Stream size : 68.0 Bytes (0%)<br>
Title : European (Forced)<br>
Language : Spanish<br>
Default : No<br>
Forced : Yes<br>
<br>
Text #11<br>
ID : 36<br>
Format : UTF-8<br>
Codec ID : S_TEXT/UTF8<br>
Codec ID/Info : UTF-8 Plain Text<br>
Duration : 1 h 13 min<br>
Bit rate : 59 b/s<br>
Frame rate : 0.278 FPS<br>
Count of elements : 1235<br>
Stream size : 32.2 KiB (0%)<br>
Title : European<br>
Language : Spanish<br>
Default : No<br>
Forced : No<br>
<br>
Text #12<br>
ID : 37<br>
Format : UTF-8<br>
Codec ID : S_TEXT/UTF8<br>
Codec ID/Info : UTF-8 Plain Text<br>
Duration : 47 min 3 s<br>
Bit rate : 0 b/s<br>
Frame rate : 0.001 FPS<br>
Count of elements : 3<br>
Stream size : 90.0 Bytes (0%)<br>
Title : Forced<br>
Language : Finnish<br>
Default : No<br>
Forced : Yes<br>
<br>
Text #13<br>
ID : 38<br>
Format : UTF-8<br>
Codec ID : S_TEXT/UTF8<br>
Codec ID/Info : UTF-8 Plain Text<br>
Duration : 1 h 14 min<br>
Bit rate : 57 b/s<br>
Frame rate : 0.212 FPS<br>
Count of elements : 950<br>
Stream size : 31.5 KiB (0%)<br>
Language : Finnish<br>
Default : No<br>
Forced : No<br>
<br>
Text #14<br>
ID : 39<br>
Format : UTF-8<br>
Codec ID : S_TEXT/UTF8<br>
Codec ID/Info : UTF-8 Plain Text<br>
Duration : 1 h 14 min<br>
Bit rate : 62 b/s<br>
Frame rate : 0.239 FPS<br>
Count of elements : 1065<br>
Stream size : 33.7 KiB (0%)<br>
Language : Hungarian<br>
Default : No<br>
Forced : No<br>
<br>
Text #15<br>
ID : 40<br>
Format : UTF-8<br>
Codec ID : S_TEXT/UTF8<br>
Codec ID/Info : UTF-8 Plain Text<br>
Duration : 1 h 13 min<br>
Bit rate : 57 b/s<br>
Frame rate : 0.194 FPS<br>
Count of elements : 861<br>
Stream size : 31.2 KiB (0%)<br>
Language : Icelandic<br>
Default : No<br>
Forced : No<br>
<br>
Text #16<br>
ID : 41<br>
Format : UTF-8<br>
Codec ID : S_TEXT/UTF8<br>
Codec ID/Info : UTF-8 Plain Text<br>
Duration : 47 min 3 s<br>
Bit rate : 0 b/s<br>
Frame rate : 0.001 FPS<br>
Count of elements : 3<br>
Stream size : 74.0 Bytes (0%)<br>
Title : Forced<br>
Language : Italian<br>
Default : No<br>
Forced : Yes<br>
<br>
Text #17<br>
ID : 42<br>
Format : UTF-8<br>
Codec ID : S_TEXT/UTF8<br>
Codec ID/Info : UTF-8 Plain Text<br>
Duration : 1 h 14 min<br>
Bit rate : 57 b/s<br>
Frame rate : 0.212 FPS<br>
Count of elements : 950<br>
Stream size : 31.4 KiB (0%)<br>
Language : Italian<br>
Default : No<br>
Forced : No<br>
<br>
Text #18<br>
ID : 43<br>
Format : UTF-8<br>
Codec ID : S_TEXT/UTF8<br>
Codec ID/Info : UTF-8 Plain Text<br>
Duration : 49 min 43 s<br>
Bit rate : 0 b/s<br>
Frame rate : 0.001 FPS<br>
Count of elements : 3<br>
Stream size : 89.0 Bytes (0%)<br>
Title : Forced<br>
Language : Japanese<br>
Default : No<br>
Forced : Yes<br>
<br>
Text #19<br>
ID : 44<br>
Format : UTF-8<br>
Codec ID : S_TEXT/UTF8<br>
Codec ID/Info : UTF-8 Plain Text<br>
Duration : 1 h 13 min<br>
Bit rate : 45 b/s<br>
Frame rate : 0.243 FPS<br>
Count of elements : 1076<br>
Stream size : 24.8 KiB (0%)<br>
Language : Japanese<br>
Default : No<br>
Forced : No<br>
<br>
Text #20<br>
ID : 45<br>
Format : UTF-8<br>
Codec ID : S_TEXT/UTF8<br>
Codec ID/Info : UTF-8 Plain Text<br>
Duration : 1 h 15 min<br>
Bit rate : 89 b/s<br>
Frame rate : 0.271 FPS<br>
Count of elements : 1222<br>
Stream size : 49.4 KiB (0%)<br>
Title : SDH<br>
Language : Japanese<br>
Default : No<br>
Forced : No<br>
<br>
Text #21<br>
ID : 46<br>
Format : UTF-8<br>
Codec ID : S_TEXT/UTF8<br>
Codec ID/Info : UTF-8 Plain Text<br>
Duration : 1 h 14 min<br>
Bit rate : 0 b/s<br>
Frame rate : 0.002 FPS<br>
Count of elements : 8<br>
Stream size : 172 Bytes (0%)<br>
Title : Forced<br>
Language : Korean<br>
Default : No<br>
Forced : Yes<br>
<br>
Text #22<br>
ID : 47<br>
Format : UTF-8<br>
Codec ID : S_TEXT/UTF8<br>
Codec ID/Info : UTF-8 Plain Text<br>
Duration : 1 h 14 min<br>
Bit rate : 63 b/s<br>
Frame rate : 0.214 FPS<br>
Count of elements : 962<br>
Stream size : 34.8 KiB (0%)<br>
Language : Korean<br>
Default : No<br>
Forced : No<br>
<br>
Text #23<br>
ID : 48<br>
Format : UTF-8<br>
Codec ID : S_TEXT/UTF8<br>
Codec ID/Info : UTF-8 Plain Text<br>
Duration : 1 h 12 min<br>
Bit rate : 51 b/s<br>
Frame rate : 0.202 FPS<br>
Count of elements : 872<br>
Stream size : 27.2 KiB (0%)<br>
Language : Dutch<br>
Default : No<br>
Forced : No<br>
<br>
Text #24<br>
ID : 49<br>
Format : UTF-8<br>
Codec ID : S_TEXT/UTF8<br>
Codec ID/Info : UTF-8 Plain Text<br>
Duration : 1 s 800 ms<br>
Bit rate : 31 b/s<br>
Frame rate : 0.556 FPS<br>
Count of elements : 1<br>
Stream size : 7.00 Bytes (0%)<br>
Title : Forced<br>
Language : Dutch<br>
Default : No<br>
Forced : Yes<br>
<br>
Text #25<br>
ID : 50<br>
Format : UTF-8<br>
Codec ID : S_TEXT/UTF8<br>
Codec ID/Info : UTF-8 Plain Text<br>
Duration : 47 min 3 s<br>
Bit rate : 0 b/s<br>
Frame rate : 0.001 FPS<br>
Count of elements : 3<br>
Stream size : 67.0 Bytes (0%)<br>
Title : Forced<br>
Language : Norwegian<br>
Default : No<br>
Forced : Yes<br>
<br>
Text #26<br>
ID : 51<br>
Format : UTF-8<br>
Codec ID : S_TEXT/UTF8<br>
Codec ID/Info : UTF-8 Plain Text<br>
Duration : 1 h 14 min<br>
Bit rate : 55 b/s<br>
Frame rate : 0.212 FPS<br>
Count of elements : 950<br>
Stream size : 30.2 KiB (0%)<br>
Language : Norwegian<br>
Default : No<br>
Forced : No<br>
<br>
Text #27<br>
ID : 52<br>
Format : UTF-8<br>
Codec ID : S_TEXT/UTF8<br>
Codec ID/Info : UTF-8 Plain Text<br>
Duration : 1 h 13 min<br>
Bit rate : 55 b/s<br>
Frame rate : 0.215 FPS<br>
Count of elements : 955<br>
Stream size : 30.0 KiB (0%)<br>
Language : Polish<br>
Default : No<br>
Forced : No<br>
<br>
Text #28<br>
ID : 53<br>
Format : UTF-8<br>
Codec ID : S_TEXT/UTF8<br>
Codec ID/Info : UTF-8 Plain Text<br>
Duration : 1 h 14 min<br>
Bit rate : 60 b/s<br>
Frame rate : 0.215 FPS<br>
Count of elements : 965<br>
Stream size : 33.2 KiB (0%)<br>
Title : Brazilian<br>
Language : Portuguese<br>
Default : No<br>
Forced : No<br>
<br>
Text #29<br>
ID : 54<br>
Format : UTF-8<br>
Codec ID : S_TEXT/UTF8<br>
Codec ID/Info : UTF-8 Plain Text<br>
Duration : 1 h 14 min<br>
Bit rate : 0 b/s<br>
Frame rate : 0.002 FPS<br>
Count of elements : 8<br>
Stream size : 131 Bytes (0%)<br>
Title : Brazilian (Forced)<br>
Language : Portuguese<br>
Default : No<br>
Forced : Yes<br>
<br>
Text #30<br>
ID : 55<br>
Format : UTF-8<br>
Codec ID : S_TEXT/UTF8<br>
Codec ID/Info : UTF-8 Plain Text<br>
Duration : 1 h 14 min<br>
Bit rate : 54 b/s<br>
Frame rate : 0.212 FPS<br>
Count of elements : 951<br>
Stream size : 30.1 KiB (0%)<br>
Title : European<br>
Language : Portuguese<br>
Default : No<br>
Forced : No<br>
<br>
Text #31<br>
ID : 56<br>
Format : UTF-8<br>
Codec ID : S_TEXT/UTF8<br>
Codec ID/Info : UTF-8 Plain Text<br>
Duration : 52 min 43 s<br>
Bit rate : 0 b/s<br>
Frame rate : 0.001 FPS<br>
Count of elements : 4<br>
Stream size : 83.0 Bytes (0%)<br>
Title : European (Forced)<br>
Language : Portuguese<br>
Default : No<br>
Forced : Yes<br>
<br>
Text #32<br>
ID : 57<br>
Format : UTF-8<br>
Codec ID : S_TEXT/UTF8<br>
Codec ID/Info : UTF-8 Plain Text<br>
Duration : 1 h 14 min<br>
Bit rate : 0 b/s<br>
Frame rate : 0.003 FPS<br>
Count of elements : 15<br>
Stream size : 262 Bytes (0%)<br>
Title : Forced<br>
Language : Romanian<br>
Default : No<br>
Forced : Yes<br>
<br>
Text #33<br>
ID : 58<br>
Format : UTF-8<br>
Codec ID : S_TEXT/UTF8<br>
Codec ID/Info : UTF-8 Plain Text<br>
Duration : 1 h 14 min<br>
Bit rate : 55 b/s<br>
Frame rate : 0.204 FPS<br>
Count of elements : 908<br>
Stream size : 29.9 KiB (0%)<br>
Language : Romanian<br>
Default : No<br>
Forced : No<br>
<br>
Text #34<br>
ID : 59<br>
Format : UTF-8<br>
Codec ID : S_TEXT/UTF8<br>
Codec ID/Info : UTF-8 Plain Text<br>
Duration : 1 h 14 min<br>
Bit rate : 47 b/s<br>
Frame rate : 0.186 FPS<br>
Count of elements : 827<br>
Stream size : 25.6 KiB (0%)<br>
Language : Slovak<br>
Default : No<br>
Forced : No<br>
<br>
Text #35<br>
ID : 60<br>
Format : UTF-8<br>
Codec ID : S_TEXT/UTF8<br>
Codec ID/Info : UTF-8 Plain Text<br>
Duration : 47 min 3 s<br>
Bit rate : 0 b/s<br>
Frame rate : 0.001 FPS<br>
Count of elements : 3<br>
Stream size : 75.0 Bytes (0%)<br>
Title : Forced<br>
Language : Swedish<br>
Default : No<br>
Forced : Yes<br>
<br>
Text #36<br>
ID : 61<br>
Format : UTF-8<br>
Codec ID : S_TEXT/UTF8<br>
Codec ID/Info : UTF-8 Plain Text<br>
Duration : 1 h 14 min<br>
Bit rate : 57 b/s<br>
Frame rate : 0.212 FPS<br>
Count of elements : 950<br>
Stream size : 31.6 KiB (0%)<br>
Language : Swedish<br>
Default : No<br>
Forced : No<br>
<br>
Text #37<br>
ID : 62<br>
Format : UTF-8<br>
Codec ID : S_TEXT/UTF8<br>
Codec ID/Info : UTF-8 Plain Text<br>
Duration : 1 h 13 min<br>
Bit rate : 51 b/s<br>
Frame rate : 0.166 FPS<br>
Count of elements : 736<br>
Stream size : 27.9 KiB (0%)<br>
Language : Turkish<br>
Default : No<br>
Forced : No<br>
<br>
Text #38<br>
ID : 63<br>
Format : UTF-8<br>
Codec ID : S_TEXT/UTF8<br>
Codec ID/Info : UTF-8 Plain Text<br>
Duration : 1 h 14 min<br>
Bit rate : 56 b/s<br>
Frame rate : 0.312 FPS<br>
Count of elements : 1404<br>
Stream size : 31.1 KiB (0%)<br>
Title : Traditional, Hong Kong<br>
Language : Chinese<br>
Default : No<br>
Forced : No<br>
<br>
Text #39<br>
ID : 64<br>
Format : UTF-8<br>
Codec ID : S_TEXT/UTF8<br>
Codec ID/Info : UTF-8 Plain Text<br>
Duration : 1 h 14 min<br>
Bit rate : 54 b/s<br>
Frame rate : 0.221 FPS<br>
Count of elements : 994<br>
Stream size : 29.7 KiB (0%)<br>
Title : Simplified<br>
Language : Chinese<br>
Default : No<br>
Forced : No<br>
<br>
Text #40<br>
ID : 65<br>
Format : UTF-8<br>
Codec ID : S_TEXT/UTF8<br>
Codec ID/Info : UTF-8 Plain Text<br>
Duration : 1 h 14 min<br>
Bit rate : 51 b/s<br>
Frame rate : 0.214 FPS<br>
Count of elements : 963<br>
Stream size : 28.5 KiB (0%)<br>
Title : Traditional<br>
Language : Chinese<br>
Default : No<br>
Forced : No<br>
<br>
Menu<br>
00:10:34.801 : en:Scene 1<br>
00:20:53.879 : en:Scene 2<br>
00:30:48.974 : en:Scene 3<br>
00:42:29.466 : en:Scene 4<br>
00:57:18.897 : en:Scene 5<br>
01:07:27.172 : en:Scene 6<br>
01:14:28.468 : en:Credits</div>
</div><br>
<b>Screenshots</b><br>
<img src="https://i.imgur.com/jXGtVyN.png" class="bbCodeImage LbImage" alt="[​IMG]" data-url="https://i.imgur.com/jXGtVyN.png" style=""><br>
<br>
<b>Download</b><br>
<div class="bbCodeBlock bbCodeVfcHH HiddenContent">
<div class="attribution type">Hidden Content:</div>
<blockquote>You must reply before you can see the hidden data contained here.</blockquote>
</div></div>
<div class="messageTextEndMarker">&nbsp;</div>
</blockquote>
</article>]]></description>
                <author><![CDATA[Samuel]]></author>
                </item>

                </channel></rss>